<?xml version="1.0" encoding="utf-8"?>
<!-- Generator: Adobe Illustrator 23.0.4, SVG Export Plug-In . SVG Version: 6.00 Build 0)  -->
<svg version="1.1" id="Ebene_1" xmlns="http://www.w3.org/2000/svg" xmlns:xlink="http://www.w3.org/1999/xlink" x="0px" y="0px"
	 viewBox="0 0 1275.5906982 1275.9222412" style="enable-background:new 0 0 1275.5906982 1275.9222412;" xml:space="preserve">
<style type="text/css">
	.st0{opacity:0.2;}
	.st1{fill:#FF0354;}
	.st2{opacity:0.4;fill:#FF0354;}
	.st3{opacity:0.5;fill:#FF0354;}
</style>
<title>final_Auge-01_ohneRINGE+trans</title>
<g class="st0">
	<path class="st1" d="M274.3591919,997.8681641l-89.3372192,89.3372803c1.3262939,1.326416,2.3210449,2.3210449,3.6473999,3.6473389
		l89.3372803-89.3372803C276.7277222,1000.2365723,275.3540649,998.862793,274.3591919,997.8681641z"/>
	<path class="st1" d="M1001.1838989,278.0539551l89.3373413-89.3372803
		c-1.326416-1.3262939-2.3210449-2.3209839-3.6474609-3.6473389l-89.3372192,89.3372803
		C998.6679077,275.7039795,999.8865356,276.9226074,1001.1838989,278.0539551z"/>
	<path class="st1" d="M1007.531311,284.7329102l89.6688843-89.3372192c-0.994873-1.3262939-2.3210449-2.3209839-3.315918-3.6473999
		l-89.3372192,89.3372803C1005.3557739,282.4423828,1006.3615112,283.6716309,1007.531311,284.7329102z"/>
	<path class="st1" d="M281.038269,1004.5469971l-89.3373413,89.3374023c1.326355,0.994751,2.321106,2.3210449,3.6473999,3.3157959
		l89.3846436-89.3374023C283.4185181,1006.8535156,282.1832886,1005.7449951,281.038269,1004.5469971z"/>
	<path class="st1" d="M287.7172241,1010.8945312l-89.3372803,89.6688232
		c1.3262939,0.994873,2.3210449,2.3210449,3.6473999,3.3157959l89.3372192-89.3372803
		C290.2332153,1013.2445068,289.0145874,1012.0258789,287.7172241,1010.8945312z"/>
	<path class="st1" d="M1014.2102661,291.7435303l89.3373413-89.3372803
		c-0.994873-1.3262939-2.3210449-2.3209839-3.3156738-3.6473999l-89.3374634,89.3373413
		C1011.8803101,289.4154053,1012.9906616,290.6368408,1014.2102661,291.7435303z"/>
	<path class="st1" d="M294.7277222,1017.5733643l-89.3372192,89.3374023
		c1.3262939,0.994751,2.3210449,2.3210449,3.6473389,3.3157959l89.3373413-89.3372803
		C297.3230591,1019.616333,296.0949097,1018.4997559,294.7277222,1017.5733643z"/>
	<path class="st1" d="M1020.5103149,298.7541504l89.6688843-89.6688843c-0.994873-1.326355-2.3210449-2.321106-3.3156738-3.6473999
		l-89.3374634,89.289917C1018.2277222,296.2641602,1019.2444458,297.6359863,1020.5103149,298.7541504z"/>
	<path class="st1" d="M1026.526123,306.0488281l89.6689453-89.6688232c-1.0214844-1.2894897-2.1291504-2.5081177-3.315918-3.6473999
		l-89.3372192,89.3372192C1024.5366211,303.3962402,1025.5314941,304.7225342,1026.526123,306.0488281z"/>
	<path class="st1" d="M301.690979,1023.5418701l-89.6688843,89.6689453c1.326355,0.994751,2.321106,2.3210449,3.6473999,3.3157959
		l89.6688232-89.6689453C304.3909302,1025.862915,303.0646362,1024.8682861,301.690979,1023.5418701z"/>
	<path class="st1" d="M1032.8735352,313.0594482l89.6689453-89.6688843
		c-0.9265137-1.3671265-2.0429688-2.5952148-3.315918-3.6473999l-89.6689453,89.6688232
		C1030.5705566,310.7087402,1031.6789551,311.9278564,1032.8735352,313.0594482z"/>
	<path class="st1" d="M309.0331421,1029.8892822l-89.6688843,89.6688232
		c1.2894897,1.0213623,2.5081177,2.1292725,3.6473999,3.315918l89.6688232-89.6689453
		C311.5601196,1031.9991455,310.3400269,1030.8898926,309.0331421,1029.8892822z"/>
	<path class="st1" d="M1038.510498,320.4016113l90.0004883-90.0004883c-0.9265137-1.3671265-2.0429688-2.5952759-3.315918-3.6473999
		l-89.6689453,89.6688843C1036.4404297,317.8074951,1037.4370117,319.1362305,1038.510498,320.4016113z"/>
	<path class="st1" d="M316.3753052,1035.9050293l-90.0004883,89.6689453
		c1.2894897,1.0213623,2.5081177,2.1291504,3.6473999,3.3157959l90.0004272-90.0004883
		C318.8746948,1037.8143311,317.656311,1036.8173828,316.3753052,1035.9050293z"/>
	<path class="st1" d="M323.7173462,1041.8735352l-90.0004272,90.0004883c1.326355,0.9946289,2.65271,1.989502,3.9790039,2.9842529
		l90.0004272-90.0004883C326.3700562,1043.9104004,325.0437622,1042.8684082,323.7173462,1041.8735352z"/>
	<path class="st1" d="M1044.526123,328.0753174l90.0004883-90.0004883c-0.9946289-1.3262329-1.989502-2.6525879-2.9841309-3.9790039
		l-90.0004883,90.0004883C1042.5368652,325.4226074,1043.5317383,326.7490234,1044.526123,328.0753174z"/>
	<path class="st1" d="M1050.2104492,335.7490234l90.3320312-90.3320312c-0.9946289-1.3262939-1.989502-2.6526489-2.984375-3.9790039
		l-90.0002441,90.0004883C1048.2436523,332.9884033,1049.1359863,334.4383545,1050.2104492,335.7490234z"/>
	<path class="st1" d="M331.3911743,1047.5578613l-90.0004883,90.0003662c1.326355,0.994751,2.6526489,1.989502,3.9790039,2.9842529
		l90.3320312-90.3320312C334.1519165,1049.5246582,332.7018433,1048.6323242,331.3911743,1047.5578613z"/>
	<path class="st1" d="M1055.8474121,343.4227295l90.3317871-90.3320312c-0.9946289-1.3262939-1.989502-2.65271-2.9841309-3.9790039
		l-90.3317871,90.284668C1053.8579102,340.7226562,1054.8525391,342.0964355,1055.8474121,343.4227295z"/>
	<path class="st1" d="M339.0648804,1053.2420654l-90.3320312,90.3320312
		c1.3262939,0.994751,2.6525879,1.9893799,3.9790039,2.9842529l90.3320312-90.3320312
		C341.7174683,1055.2314453,340.3911743,1054.2366943,339.0648804,1053.2420654z"/>
	<path class="st1" d="M346.7385864,1058.5473633l-90.6635742,90.6634521c1.3262939,0.994751,2.6525879,1.989624,3.9788818,2.9842529
		l90.6636963-90.6634521C349.4522095,1060.4580078,348.1234741,1059.4614258,346.7385864,1058.5473633z"/>
	<path class="st1" d="M1061.1999512,351.4281006l90.6635742-90.6636963c-0.994873-1.3261719-1.989502-2.6525879-2.9841309-3.9790039
		l-90.3320312,90.3320312C1059.2104492,348.3964844,1060.2053223,349.7227783,1061.1999512,351.4281006z"/>
	<path class="st1" d="M1066.5527344,359.4333496l90.9951172-91.0426025c-0.9946289-1.3262939-1.9892578-2.65271-2.9841309-3.9790039
		l-90.9953613,91.0426025C1064.8266602,356.5610352,1065.8425293,357.9156494,1066.5527344,359.4333496z"/>
	<path class="st1" d="M354.7438354,1064.2315674l-90.9952393,90.9952393c1.326416,0.994751,2.65271,1.989502,3.9790039,2.9842529
		l90.9952393-90.9952393C357.6315308,1065.9411621,356.2730103,1064.9223633,354.7438354,1064.2315674z"/>
	<path class="st1" d="M1071.8579102,367.4385986l91.3740234-91.3740234
		c-1.0822754-1.3907471-2.0788574-2.8460693-2.9841309-4.3579102l-90.9953613,91.0424805
		C1069.9121094,364.4195557,1070.7880859,365.9960938,1071.8579102,367.4385986z"/>
	<path class="st1" d="M362.7492065,1069.2052002l-90.9952393,91.3741455
		c1.390625,1.0823975,2.8459473,2.0789795,4.3579102,2.9842529l91.3741455-91.3741455
		C365.7333374,1071.2421875,364.4070435,1070.2473145,362.7492065,1069.2052002z"/>
	<path class="st1" d="M1076.8791504,375.7281494l91.7055664-91.7056885
		c-1.0822754-1.3907471-2.0788574-2.8460693-2.9841309-4.3579102l-91.3740234,91.3740234
		C1075.0285645,372.6468506,1075.9140625,374.2121582,1076.8791504,375.7281494z"/>
	<path class="st1" d="M371.0386353,1074.5579834l-91.3740234,91.3740234
		c1.390625,1.0823975,2.8459473,2.0789795,4.3579102,2.9842529l91.7056885-91.7056885
		C374.0702515,1076.2158203,372.4124146,1075.5527344,371.0386353,1074.5579834z"/>
	<path class="st1" d="M1081.8527832,384.0650635l92.0373535-92.0373535c-1.013916-1.3696289-1.9018555-2.828125-2.652832-4.3579102
		l-91.7055664,91.7058105C1080.0932617,381.0350342,1080.8737793,382.6121826,1081.8527832,384.0650635z"/>
	<path class="st1" d="M379.3755493,1079.5791016l-91.7056885,91.7056885c1.3695068,1.0140381,2.828125,1.9018555,4.3579102,2.65271
		l92.0372314-92.0373535C382.4071655,1081.2369385,380.7492065,1080.2421875,379.3755493,1079.5791016z"/>
	<path class="st1" d="M1086.5422363,392.7335205l92.3688965-92.3688965c-0.994873-1.3262939-1.657959-2.9842529-2.652832-4.3579102
		l-92.3688965,92.3688965C1084.9543457,389.7103271,1085.8457031,391.1745605,1086.5422363,392.7335205z"/>
	<path class="st1" d="M387.7124634,1084.2210693l-92.3688965,92.3688965c1.3262939,0.994751,2.9842529,1.657959,4.3579102,2.65271
		l92.3688965-92.3688965C390.6702271,1085.9060059,389.2151489,1085.0202637,387.7124634,1084.2210693z"/>
	<path class="st1" d="M1091.2316895,401.4019775l93.0319824-93.0321045
		c-0.9946289-1.3262939-1.6577148-2.9841309-2.6525879-4.3579102l-92.7004395,92.7005615
		C1089.5263672,398.4177246,1090.5212402,399.7440186,1091.2316895,401.4019775z"/>
	<path class="st1" d="M396.3809204,1089.2421875l-92.7004395,92.7004395c1.3262939,0.994873,2.9842529,1.657959,4.3579102,2.65271
		l93.0319824-93.0319824C399.5811157,1090.6485596,398.0114136,1089.8717041,396.3809204,1089.2421875z"/>
	<path class="st1" d="M1095.8737793,410.0704346l93.3637695-93.3636475c-0.994873-1.3262939-1.657959-2.9842529-2.652832-4.3579102
		l-93.3635254,93.0319824C1094.0234375,406.9890137,1094.9089355,408.5543213,1095.8737793,410.0704346z"/>
	<path class="st1" d="M405.0493774,1093.5528564l-93.0321045,93.0319824c1.326416,0.994751,2.9842529,1.6578369,4.3580322,2.65271
		l93.3635254-93.3637695C408.4125366,1095.2106934,406.7546997,1094.5474854,405.0493774,1093.5528564z"/>
	<path class="st1" d="M414.0493774,1098.2423096L320.354187,1191.9375c1.657959,0.994751,2.9842529,1.6578369,4.6895752,2.65271
		l93.6951904-93.6953125C417.3814087,1099.6882324,415.7828979,1098.7840576,414.0493774,1098.2423096z"/>
	<path class="st1" d="M1100.2319336,419.0704346l93.6950684-93.6951904
		c-0.9946289-1.6578369-1.657959-2.9841309-2.6525879-4.6894531l-93.6953125,93.6951904
		C1098.5266113,416.0863037,1099.1896973,417.4125977,1100.2319336,419.0704346z"/>
	<path class="st1" d="M423.0494995,1102.5528564l-94.0268555,94.0267334c1.657959,0.994873,2.9842529,1.657959,4.6895752,2.65271
		l94.3583984-94.3582764C426.4674683,1103.9560547,424.7874146,1103.1793213,423.0494995,1102.5528564z"/>
	<path class="st1" d="M1104.2106934,428.4494629l94.3583984-94.3583984
		c-0.7675781-1.6263428-1.6540527-3.1938477-2.6525879-4.6894531l-94.0268555,94.0267334
		C1102.8076172,425.0314941,1103.5842285,426.7115479,1104.2106934,428.4494629z"/>
	<path class="st1" d="M432.4284058,1106.5792236l-94.6898193,94.6898193c1.6578369,0.663208,2.9841309,1.657959,4.6894531,2.3210449
		l95.0214844-95.0216064C435.7442017,1107.9053955,434.0863647,1107.2423096,432.4284058,1106.5792236z"/>
	<path class="st1" d="M1108.5686035,437.4494629l95.0214844-95.0214844
		c-0.6630859-1.6578369-1.6577148-2.9842529-2.3208008-4.6894531l-94.6899414,94.6899414
		C1106.8579102,434.2301025,1107.5375977,435.9460449,1108.5686035,437.4494629z"/>
	<path class="st1" d="M441.7600708,1110.5581055l-95.3530273,95.0216064
		c1.6578369,0.6630859,2.9841309,1.6578369,4.6894531,2.3210449l95.6846924-95.6846924
		C445.0595093,1111.8210449,443.378479,1111.2659912,441.7600708,1110.5581055z"/>
	<path class="st1" d="M1112.2160645,447.112793l95.6845703-95.6846924c-0.6630859-1.657959-1.657959-2.9842529-2.3210449-4.6895752
		l-95.3530273,95.3531494C1110.8896484,443.7495117,1111.5529785,445.454834,1112.2160645,447.112793z"/>
	<path class="st1" d="M451.0917358,1114.2529297l-95.6846924,95.6846924
		c1.6578369,0.6630859,2.9842529,1.6578369,4.6894531,2.3209229l96.3479004-96.3477783
		C454.6026001,1115.5650635,452.8065796,1115.0087891,451.0917358,1114.2529297z"/>
	<path class="st1" d="M1115.8635254,456.4443359l96.3476562-96.3477783
		c-0.6630859-1.657959-1.6577148-2.9842529-2.3210449-4.6895752l-95.6845703,95.6846924
		C1114.8625488,452.8419189,1115.4160156,454.6292725,1115.8635254,456.4443359z"/>
	<path class="st1" d="M460.7549438,1117.9002686l-96.3479004,96.3477783c1.657959,0.6630859,3.3157959,1.657959,4.6895752,2.3210449
		l97.0109863-97.0111084C464.2778931,1119.1645508,462.4867554,1118.6097412,460.7549438,1117.9002686z"/>
	<path class="st1" d="M1119.5581055,466.4390869l97.0109863-97.0109863
		c-0.5810547-1.6512451-1.3603516-3.2259521-2.3210449-4.6894531l-96.3476562,96.3477783
		C1118.5634766,462.791748,1118.8950195,464.449707,1119.5581055,466.4390869z"/>
	<path class="st1" d="M470.7496948,1121.5950928l-97.3426514,97.3425293
		c1.7303467,0.6448975,3.4088135,1.4207764,5.0211182,2.3210449l97.6741943-97.6741943
		C474.0654907,1122.9213867,472.4075317,1122.2581787,470.7496948,1121.5950928z"/>
	<path class="st1" d="M1123.2055664,476.1022949l97.6740723-97.6741943
		c-0.6447754-1.7302246-1.4206543-3.4088135-2.3208008-5.0209961l-97.3427734,97.3426514
		C1121.8791504,472.786499,1122.5424805,474.444458,1123.2055664,476.1022949z"/>
	<path class="st1" d="M480.7445679,1124.9108887l-98.0058594,98.0056152c1.657959,0.663208,3.3157959,1.326416,5.0211182,1.989502
		l98.3372803-98.3374023C484.0603638,1125.9055176,482.4024048,1125.5739746,480.7445679,1124.9108887z"/>
	<path class="st1" d="M1126.2370605,486.4287109l98.3374023-98.3372803c-0.6630859-1.657959-1.3261719-3.3157959-1.989502-5.0211182
		l-98.0056152,98.0057373C1125.3007812,482.8035889,1125.8557129,484.5959473,1126.2370605,486.4287109z"/>
	<path class="st1" d="M1129.2214355,496.4234619l99.3320312-99.3320312c-0.6630859-1.657959-1.326416-3.3157959-1.989502-5.0211182
		l-98.6689453,98.7163086C1128.2265625,493.107666,1128.8898926,494.765625,1129.2214355,496.4234619z"/>
	<path class="st1" d="M490.7393188,1127.8951416l-98.6689453,98.7161865
		c1.6578369,0.6630859,3.3157959,1.3262939,5.0209961,1.989502l99.3321533-99.3321533
		C494.47052,1129.0991211,492.5542603,1128.6359863,490.7393188,1127.8951416z"/>
	<path class="st1" d="M1132.2055664,507.1287842l100.3742676-100.3741455
		c-0.6630859-1.657959-1.326416-3.3157959-1.989502-5.0211182l-99.6635742,99.7110596
		C1131.2109375,503.434082,1131.8740234,505.092041,1132.2055664,507.1287842z"/>
	<path class="st1" d="M501.0656128,1130.9266357l-99.6636963,99.6635742c1.657959,0.6630859,3.3157959,1.326416,5.0211182,1.989502
		l100.3741455-100.3741455C504.850647,1131.9606934,502.9315796,1131.5324707,501.0656128,1130.9266357z"/>
	<path class="st1" d="M511.7709351,1133.9108887l-100.7056885,100.7058105
		c1.6578369,0.6630859,3.3157959,1.3262939,5.0209961,1.989502l101.3690186-101.3690186
		C515.418396,1134.9055176,513.428894,1134.2424316,511.7709351,1133.9108887z"/>
	<path class="st1" d="M1134.9057617,517.7867432l101.3688965-101.3688965
		c-0.6630859-1.657959-1.326416-3.3157959-1.989502-5.0211182l-100.7058105,100.7058105
		C1133.8635254,513.760376,1134.5739746,515.7972412,1134.9057617,517.7867432z"/>
	<path class="st1" d="M1137.5581055,528.4447021l102.3637695-102.3636475
		c-0.6630859-1.657959-1.3261719-3.3157959-1.989502-5.3526611l-101.7004395,101.7005615
		C1136.4748535,524.4730225,1136.9189453,526.4880371,1137.5581055,528.4447021z"/>
	<path class="st1" d="M522.428894,1136.5634766L420.7284546,1238.263916c1.6578369,0.6630859,3.3157959,1.326416,5.3526611,1.989502
		l102.3636475-102.3637695C526.4761353,1137.295166,524.4650269,1136.8518066,522.428894,1136.5634766z"/>
	<path class="st1" d="M533.418396,1138.9318848l-102.6951904,102.6953125
		c1.7318115,0.7094727,3.5229492,1.2642822,5.3526611,1.6578369l103.3583984-103.3583984
		C537.4447632,1139.5950928,535.4078979,1139.2635498,533.418396,1138.9318848z"/>
	<path class="st1" d="M1139.5478516,539.4342041L1242.90625,436.0758057
		c-0.7094727-1.7318115-1.2644043-3.5230713-1.657959-5.3526611L1138.5529785,533.75
		C1138.8845215,535.7868652,1139.2160645,537.7763672,1139.5478516,539.4342041z"/>
	<path class="st1" d="M544.4078979,1140.9215088l-104.0214844,104.0216064
		c1.7318115,0.7094727,3.5229492,1.2642822,5.3526611,1.6578369l104.6846924-104.6846924
		C548.3955688,1141.7426758,546.3840942,1141.4100342,544.4078979,1140.9215088z"/>
	<path class="st1" d="M1141.8688965,550.8027344l104.6845703-104.6846924
		c-0.6630859-1.657959-0.9946289-3.6474609-1.6577148-5.3526611l-104.0217285,104.0216064
		C1141.2058105,546.7763672,1141.5373535,548.7658691,1141.8688965,550.8027344z"/>
	<path class="st1" d="M1143.5742188,562.4554443l105.6794434-105.6794434
		c-0.6630859-1.657959-0.994873-3.6474609-1.657959-5.3526611l-105.0163574,105.0162354
		C1142.8635254,558.1448975,1143.2424316,560.4659424,1143.5742188,562.4554443z"/>
	<path class="st1" d="M555.7764282,1142.9108887l-105.0162354,105.0163574
		c1.6578369,0.6630859,3.6473389,0.994751,5.3526611,1.6578369l105.6794434-105.6794434
		C560.0869751,1143.5740967,558.0974731,1143.2424316,555.7764282,1142.9108887z"/>
	<path class="st1" d="M1145.2319336,574.1080322l107.3376465-107.3372803
		c-0.6633301-1.989502-0.994873-3.6473389-1.657959-5.6842041l-106.3427734,106.3425293
		C1144.6064453,569.6697998,1144.828125,571.9036865,1145.2319336,574.1080322z"/>
	<path class="st1" d="M567.4291382,1144.5688477L461.0864868,1250.911499
		c1.989502,0.6630859,3.6473389,0.994751,5.6843262,1.6578369l107.3372803-107.3374023
		C571.8674927,1145.1918945,569.6338501,1144.9702148,567.4291382,1144.5688477z"/>
	<path class="st1" d="M579.4133911,1146.2266846l-108.0004883,108.0006104
		c1.9345703,0.4053955,3.8349609,0.9595947,5.6842041,1.6578369l108.7110596-108.7110596
		C583.6951294,1146.7434082,581.5604858,1146.427124,579.4133911,1146.2266846z"/>
	<path class="st1" d="M1146.5583496,586.1397705l108.7109375-108.7110596
		c-0.4052734-1.9346924-0.9594727-3.835083-1.657959-5.6843262l-108.0004883,108.0006104
		C1146.0895996,581.8492432,1146.40625,583.9870605,1146.5583496,586.1397705z"/>
	<path class="st1" d="M1147.5529785,598.1240234l110.3691406-110.3690186c-0.331543-1.989502-0.994873-3.6473389-1.326416-5.6842041
		l-109.3742676,109.3742676C1147.2214355,593.8134766,1147.5529785,596.1345215,1147.5529785,598.1240234z"/>
	<path class="st1" d="M591.4450073,1147.6003418l-109.3741455,109.3269043
		c1.9893799,0.331543,3.6473389,0.994751,5.6842041,1.326416l110.3688965-110.3690186
		C595.7555542,1147.9318848,593.7661743,1147.6003418,591.4450073,1147.6003418z"/>
	<path class="st1" d="M1148.5478516,610.8188477l112.0268555-112.0269775
		c-0.331543-1.9893799-0.994873-3.9788818-1.326416-5.6842041l-111.0319824,111.0321045
		C1148.1623535,606.3712158,1148.2731934,608.6036377,1148.5478516,610.8188477z"/>
	<path class="st1" d="M603.7609253,1148.2635498l-111.0322266,111.0321045c1.989502,0.331543,3.9790039,0.994873,5.6843262,1.326416
		l112.0268555-112.0268555C608.2085571,1148.6411133,605.9767456,1148.5302734,603.7609253,1148.2635498z"/>
	<path class="st1" d="M616.4557495,1148.9267578L503.765686,1261.6166992c1.989502,0.331543,3.9790039,0.994751,5.6842041,1.326416
		l113.6848145-113.6848145C620.9033813,1149.3063965,618.6713257,1149.1956787,616.4557495,1148.9267578z"/>
	<path class="st1" d="M1148.8793945,623.7978516l113.6848145-113.6848145c-0.331543-1.989502-0.994873-3.9790039-1.326416-5.6842041
		l-112.6899414,112.6900635C1148.8308105,619.333252,1148.9416504,621.5662842,1148.8793945,623.7978516z"/>
	<path class="st1" d="M629.4346313,1149.5898438L514.755188,1264.2694092c1.989502,0.331543,3.9790039,0.6630859,6.0157471,0.994751
		l115.6743164-115.6741943C634.1242065,1149.5898438,631.8031616,1149.5898438,629.4346313,1149.5898438z"/>
	<path class="st1" d="M1149.2109375,636.8242188l115.6743164-115.6741943
		c-0.331543-1.989502-0.6630859-3.9790039-0.994873-6.0158691l-114.6794434,114.6794434V636.8242188z"/>
	<path class="st1" d="M642.7926636,1149.5898438l-116.6690674,116.6690674
		c1.989502,0.331543,3.9790039,0.6630859,6.0158691,0.994751l118.0426025-118.0427246
		C647.7312622,1149.5155029,645.2616577,1149.6420898,642.7926636,1149.5898438z"/>
	<path class="st1" d="M1149.2109375,650.1347656l118.0427246-118.0426025
		c-0.331543-1.989502-0.6630859-3.9790039-0.994873-6.0158691l-116.6689453,116.6690674
		C1149.2854004,645.196167,1149.1586914,647.6657715,1149.2109375,650.1347656z"/>
	<path class="st1" d="M1148.5478516,664.1558838l120.3637695-120.3637695
		c-0.331543-1.9893799-0.6630859-3.9790039-0.994873-6.0157471l-119.0373535,119.0374756
		C1148.8793945,659.1347656,1148.5478516,661.4559326,1148.5478516,664.1558838z"/>
	<path class="st1" d="M656.4347534,1149.2583008l-119.0373535,119.0374756
		c1.9893799,0.331543,3.9788818,0.6630859,6.0157471,0.9946289l120.3637695-120.3636475
		C661.3248901,1148.8728027,658.8720093,1148.9835205,656.4347534,1149.2583008z"/>
	<path class="st1" d="M1147.5529785,678.4613037l122.6848145-122.6848145
		c-0.331543-1.989502-0.6630859-3.9790039-0.994873-6.3474121l-121.3583984,121.3585205
		C1147.9335938,673.3498535,1147.822998,675.9127197,1147.5529785,678.4613037z"/>
	<path class="st1" d="M670.4559937,1148.5952148l-121.3585205,121.3585205
		c1.989502,0.331543,3.9790039,0.6630859,6.3474121,0.9946289l122.6848145-122.6848145
		C675.5673218,1148.2084961,673.0040894,1148.3192139,670.4559937,1148.5952148z"/>
	<path class="st1" d="M1146.2268066,693.1455078l125.6689453-125.6690674
		c-0.331543-1.9893799-0.331543-4.3579102-0.6630859-6.3474121l-124.0112305,124.0111084
		C1146.8898926,687.7928467,1146.5583496,690.4927979,1146.2268066,693.1455078z"/>
	<path class="st1" d="M684.8086548,1147.2214355l-124.0111084,124.0111084
		c1.989502,0.331543,4.3579102,0.331543,6.3474121,0.6630859l125.6689453-125.7163086
		C690.2018433,1146.871582,687.5109253,1147.2219238,684.8086548,1147.2214355z"/>
	<path class="st1" d="M1144.5688477,708.161377l128.7004395-128.7005615c-0.331543-1.989502-0.331543-4.3579102-0.6630859-6.3474121
		l-127.0427246,127.0427246C1145.2319336,702.8087158,1144.9003906,705.5087891,1144.5688477,708.161377z"/>
	<path class="st1" d="M699.7771606,1145.8951416L572.734436,1272.9378662c1.989502,0.331543,4.3579102,0.331543,6.3474121,0.6630859
		l128.7006836-128.7005615C705.1298218,1145.2319336,702.4772339,1145.5634766,699.7771606,1145.8951416z"/>
	<path class="st1" d="M1141.8688965,724.1719971l132.0163574-132.0163574
		c-0.0566406-2.239624-0.2783203-4.4719238-0.6630859-6.6789551L1143.2424316,715.50354
		C1142.8635254,718.487793,1142.5319824,721.1403809,1141.8688965,724.1719971z"/>
	<path class="st1" d="M715.1245728,1143.5740967l-130.0269775,130.0268555
		c2.321167,0.331543,4.3579102,0.331543,6.6789551,0.6630859l132.0164795-132.0163574
		C720.930603,1142.8514404,718.0365601,1143.2943115,715.1245728,1143.5740967z"/>
	<path class="st1" d="M731.1351929,1140.9215088l-133.6743164,133.6743164c2.3210449,0,4.3579102,0.331543,6.6789551,0.331543
		l135.7111816-135.7111816C736.9904175,1139.9931641,734.0776978,1140.5631104,731.1351929,1140.9215088z"/>
	<path class="st1" d="M1138.8845215,740.5141602l135.7111816-135.7111816c0-2.3210449-0.331543-4.3579102-0.331543-6.6789551
		l-133.6743164,133.6744385C1140.2109375,734.498291,1139.5478516,737.4825439,1138.8845215,740.5141602z"/>
	<path class="st1" d="M1135.2373047,757.5195312l140.0217285-140.0217285
		c0.0634766-2.2315674-0.0473633-4.4645996-0.331543-6.6789551l-137.7006836,137.7005615
		C1136.5634766,751.5036621,1135.9003906,754.487915,1135.2373047,757.5195312z"/>
	<path class="st1" d="M748.140564,1137.5582275l-137.7006836,137.7006836c2.321167,0,4.6895752,0.331543,6.6789551,0.331543
		l140.0217285-140.0217285C754.156311,1136.2319336,751.1248169,1136.8951416,748.140564,1137.5582275z"/>
	<path class="st1" d="M765.477478,1133.5793457l-142.3427734,142.3428955h7.0106201l145.0428467-145.0428467
		C771.8248901,1131.9213867,768.7932739,1132.5845947,765.477478,1133.5793457z"/>
	<path class="st1" d="M1130.5478516,775.5195312l145.0427246-145.0427246v-7.0106201L1133.2478027,765.80896
		C1132.2055664,769.1722412,1131.5424805,772.1563721,1130.5478516,775.5195312z"/>
	<path class="st1" d="M1124.8635254,794.5145264l150.6796875-150.6796875v-7.3421631l-147.6481934,147.6954346
		C1126.9003906,787.8354492,1125.9055176,791.1512451,1124.8635254,794.5145264z"/>
	<path class="st1" d="M783.8091431,1128.2266846l-147.6954346,147.6955566h7.3421631l150.6796875-150.6798096
		C790.8197632,1126.2371826,787.456604,1127.2318115,783.8091431,1128.2266846z"/>
	<path class="st1" d="M1117.9001465,814.8355713l157.6901855-157.6903076v-7.342041l-153.7111816,154.0428467
		C1120.5529785,807.4934082,1119.2265625,811.1882324,1117.9001465,814.8355713z"/>
	<path class="st1" d="M803.4671021,1121.9266357l-153.7113037,153.7111816h7.3421631l157.6903076-157.6901855
		C811.0907593,1119.4815674,807.3112183,1120.8099365,803.4671021,1121.9266357z"/>
	<path class="st1" d="M824.4988403,1114.2529297l-161.0534668,161.3848877
		c2.4520264,0.0549316,4.9050293-0.0556641,7.3421631-0.331543l165.6955566-165.6955566
		C832.5040894,1111.2211914,828.4778442,1112.9265137,824.4988403,1114.2529297z"/>
	<path class="st1" d="M1109.2319336,836.8619385l165.6955566-165.6955566c0-2.3210449,0.331543-5.0209961,0.331543-7.3421631
		l-161.0534668,161.0534668C1112.5476074,828.8566895,1110.8896484,832.8356934,1109.2319336,836.8619385z"/>
	<path class="st1" d="M1098.1948242,861.1621094l176.0219727-176.0218506
		c0.2758789-2.5480957,0.3867188-5.1113281,0.331543-7.6737061l-170.0532227,170.0534668
		C1102.2211914,852.4936523,1100.2319336,856.8515625,1098.1948242,861.1621094z"/>
	<path class="st1" d="M847.8041382,1104.5895996l-170.0534668,170.0535889c2.65271,0,5.0211182-0.331543,7.6737061-0.331543
		l176.0219727-176.0220947C856.4727173,1100.5632324,852.1621704,1102.5528564,847.8041382,1104.5895996z"/>
	<path class="st1" d="M1083.2263184,889.5360107l189.3798828-189.3798828
		c0.331543-2.6525879,0.331543-5.3526611,0.6630859-7.6737061l-181.7060547,181.7060547
		C1088.8632812,879.2095947,1086.2106934,884.1833496,1083.2263184,889.5360107z"/>
	<path class="st1" d="M873.4779663,1091.8948975l-181.7059326,181.7062988
		c2.6525879-0.331543,5.3526611-0.331543,7.6737061-0.6630859l189.3798828-189.3800049
		C883.8517456,1086.5422363,878.8306274,1089.2421875,873.4779663,1091.8948975z"/>
	<path class="st1" d="M904.1729126,1074.5579834l-197.3852539,197.7167969
		c2.65271-0.3317871,5.3527832-0.6633301,8.0053711-0.994873l209.3695068-209.3695068
		C917.4834595,1066.2210693,910.8518677,1070.5789795,904.1729126,1074.5579834z"/>
	<path class="st1" d="M1061.5314941,924.5413818l209.3693848-209.3693848c0.331543-2.65271,0.6630859-5.3526611,0.994873-8.0053711
		l-197.7167969,197.7167969C1070.1999512,911.1834717,1066.2211914,917.8624268,1061.5314941,924.5413818z"/>
	<path class="st1" d="M946.1889038,1045.8999023l-224.385376,224.7169189c2.65271-0.331543,5.3526611-0.6630859,8.3369141-0.994873
		l539.102478-539.1026611c0.331543-2.6525879,0.6633301-5.3526611,0.994873-8.336792L1045.8525391,946.567749
		C1017.3654175,984.111084,983.8269653,1017.5379639,946.1889038,1045.8999023z"/>
	<path class="st1" d="M745.819519,1266.9221191l520.7710571-520.7709961c0.331543-2.65271,0.9946289-5.6843262,1.3261719-8.3369141
		L737.482605,1268.248291C740.1353149,1267.916748,743.1194458,1267.2536621,745.819519,1266.9221191z"/>
	<path class="st1" d="M762.1616821,1263.9378662l501.444519-501.4445801c0.6630859-2.9842529,0.994873-5.6842041,1.657959-8.668457
		l-511.7709351,511.770874C756.477478,1264.9324951,759.1300659,1264.6009521,762.1616821,1263.9378662z"/>
	<path class="st1" d="M779.1670532,1260.2905273l480.7445679-480.7445068
		c0.6630859-2.9842529,1.326416-6.0158691,1.989502-9.0001221l-491.7815552,491.7340088
		C773.1511841,1261.6166992,776.135437,1260.9536133,779.1670532,1260.2905273z"/>
	<path class="st1" d="M796.5039673,1255.9324951l459.0968628-459.0970459
		c0.6630859-2.9842529,1.657959-6.3474121,2.3210449-9.331543l-470.7496948,470.7497559
		C790.3269653,1257.6700439,793.4434204,1256.8948975,796.5039673,1255.9324951z"/>
	<path class="st1" d="M814.8356323,1250.911499l435.7442017-435.7442627c0.994873-3.3157959,1.657959-6.6790771,2.652832-9.663208
		l-448.107605,448.4389648C808.4882202,1252.9483643,811.8040161,1251.9534912,814.8356323,1250.911499z"/>
	<path class="st1" d="M834.1620483,1245.2745361l410.7337036-410.7336426
		c0.9946289-3.3157959,2.3208008-7.010498,3.3156738-10.326416L823.788269,1248.3060303
		C827.4830933,1247.2641602,830.7988892,1246.2692871,834.1620483,1245.2745361z"/>
	<path class="st1" d="M854.4832153,1238.2640381l383.4020386-383.4018555
		c1.3261719-3.6474609,2.6525879-7.3421631,3.9787598-10.989502l-398.3704224,398.3702393
		C847.1410522,1240.916626,850.8357544,1239.590332,854.4832153,1238.2640381z"/>
	<path class="st1" d="M876.1780396,1229.927124l353.7489624-353.7491455c1.657959-3.9790039,2.984375-7.6737061,4.6894531-11.65271
		l-370.0912476,370.0913086C868.1726685,1232.911377,872.1516724,1231.585083,876.1780396,1229.927124z"/>
	<path class="st1" d="M899.1517944,1220.263916l320.7332153-320.7331543
		c1.989502-3.9788818,3.6472168-8.336792,5.3525391-12.6473389l-338.7330933,338.7332764
		C890.8150024,1223.911377,895.1727905,1221.921875,899.1517944,1220.263916z"/>
	<path class="st1" d="M924.8256226,1207.9007568l282.7437134-282.7435303
		c2.3208008-4.6895752,4.6894531-9.331665,6.6789551-14.0211182l-303.3963013,303.3962402
		C915.4939575,1212.59021,920.1835327,1210.269165,924.8256226,1207.9007568z"/>
	<path class="st1" d="M953.5309448,1192.6005859l238.7380981-238.7380371
		c2.9841309-5.3526611,6.0158691-10.326416,8.668457-15.6790771l-263.038147,263.038208
		C943.1572876,1198.2375488,948.5099487,1195.5848389,953.5309448,1192.6005859z"/>
	<path class="st1" d="M988.204895,1171.2374268l182.7008667-182.7009277
		c4.3105469-6.34729,8.3369141-12.9788818,12.315918-19.326416l-214.390564,214.390625
		C975.1785278,1179.5742188,981.8574829,1175.5953369,988.204895,1171.2374268z"/>
	<path class="st1" d="M1037.515625,1135.2371826l97.6740723-97.6740723
		c7.6738281-9.663208,15.3474121-19.326416,22.3581543-29.321167l-149.3534546,149.3533936
		C1017.857605,1150.5845947,1027.8525391,1142.9108887,1037.515625,1135.2371826z"/>
	<path class="st1" d="M236.0380249,142.7217407l-93.6951904,93.6478271
		c-8.0053711,9.663269-15.6790161,19.65802-23.0211792,29.984314l146.7007446-146.7006836
		C255.6959839,127.0426636,245.7012329,134.7322388,236.0380249,142.7217407z"/>
	<path class="st1" d="M286.0592651,105.6794434L105.3479004,286.3908691
		c-4.3105469,6.3474121-8.3369141,13.0263672-12.3158569,19.657959l212.732666-212.732605
		C299.0383911,97.3425903,292.690979,101.7005005,286.0592651,105.6794434z"/>
	<path class="st1" d="M321.0647583,84.3635864L83.9846191,321.3963623
		c-2.9841919,5.3526611-6.0158081,10.3262939-8.668457,15.6789551l261.380188-261.711792
		C331.7227173,78.3477173,326.3700562,81.3793335,321.0647583,84.3635864z"/>
	<path class="st1" d="M350.0543823,68.6845093L68.3529663,350.4333496
		c-2.3209839,4.6894531-4.6895142,9.331543-6.6789551,14.0209961L364.0755005,62.0529213
		C359.0543823,64.0424194,354.7438354,66.3634644,350.0543823,68.6845093z"/>
	<path class="st1" d="M375.7282104,56.3686562L56.3213501,375.7281494
		c-1.989502,3.9790039-3.6473999,8.3369141-5.3526611,12.6474609L388.0440063,50.9686928
		C384.0651245,52.674015,379.7070923,54.331852,375.7282104,56.3686562z"/>
	<path class="st1" d="M398.7493286,46.3265419L46.3265381,399.0809326c-1.6578979,3.9790039-2.9841919,7.6737061-4.6895142,11.65271
		L410.4020386,41.9686317C406.7546997,43.342289,402.7283325,45.0001869,398.7493286,46.3265419z"/>
	<path class="st1" d="M420.3967896,38.0369911L37.9896851,420.7757568c-1.326355,3.6473389-2.6526489,7.3421631-3.9789429,10.989502
		L431.4337769,34.342289C427.7389526,35.6685829,424.0916138,36.6633339,420.3967896,38.0369911z"/>
	<path class="st1" d="M440.7653198,31.3580341L31.0264893,441.0969238c-0.994751,3.3157959-2.3210449,7.010498-3.3157959,10.3262939
		L451.1390991,27.994875C447.7285767,28.9896259,444.0811157,30.0316792,440.7653198,31.3580341z"/>
	<path class="st1" d="M460.0917358,25.342226L25.0106201,460.4233398c-0.994751,3.3157959-1.9894409,6.6789551-2.6526489,9.663208
		L469.8023071,22.6422138C466.3917847,23.3527241,463.4075317,24.3474751,460.0917358,25.342226z"/>
	<path class="st1" d="M478.4234009,20.3211079L19.989624,478.7550049c-0.663208,2.9842529-1.65802,6.3474121-2.321106,9.331543
		L487.7550659,18.0000019C484.607605,18.6171284,481.4932251,19.3917866,478.4234009,20.3211079z"/>
	<path class="st1" d="M496.0918579,16.010561L15.6316528,496.4234619c-0.663147,2.9842529-1.3262939,6.0158691-1.989502,9.0001221
		L505.09198,14.021121C502.1077271,14.684268,499.0761108,15.347415,496.0918579,16.010561z"/>
	<path class="st1" d="M512.765686,12.3632231L11.9842529,513.09729c-0.663147,2.9842529-0.994751,5.6842041-1.6578979,8.668457
		L521.7658081,10.6580229C518.7973022,11.3817778,515.7931519,11.9509306,512.765686,12.3632231z"/>
	<path class="st1" d="M529.1078491,9.3316069L9.0001221,529.4394531c-0.331604,2.6525879-0.994751,5.6842041-1.3262939,8.336792
		L537.7764282,7.6737084C534.9187622,8.3815336,532.0250854,8.9349394,529.1078491,9.3316069z"/>
	<path class="st1" d="M327.6963501,231.395874L553.40802,5.6842065c-2.65271,0.331604-5.3526611,0.663208-8.3369141,0.994751
		L6.6315918,545.4500732c-0.331543,2.6525879-0.663147,5.3526611-0.9946899,8.336792l225.7116089-225.7115479
		C258.9896851,291.6793213,291.3955688,259.1619873,327.6963501,231.395874z"/>
	<path class="st1" d="M214.6747437,350.4333496L4.6421509,560.7974854c-0.331604,2.65271-0.663208,5.3526611-0.994751,8.0053711
		l198.0483398-198.3800049C206.0062866,363.7438965,210.3641968,357.0649414,214.6747437,350.4333496z"/>
	<path class="st1" d="M370.3755493,202.0272827L568.4238892,4.0262475c-2.6525879,0.331604-5.3526611,0.663147-8.0053711,0.994751
		L350.0543823,215.3852539C356.7333374,210.6957397,363.4122925,206.3851929,370.3755493,202.0272827z"/>
	<path class="st1" d="M401.0703735,184.6903687L583.1080933,2.6526513c-2.6525879,0.331543-5.3526611,0.331543-7.6737061,0.663147
		L385.3914185,193.3587646C390.7440796,190.0430298,395.7177124,187.3903809,401.0703735,184.6903687z"/>
	<path class="st1" d="M192.6956787,385.7703857L2.6526489,575.8133545c-0.331604,2.6525879-0.331604,5.3526611-0.663147,7.6737061
		l182.0377197-182.0377197C187.0114746,396.0966797,190.0430298,391.0755615,192.6956787,385.7703857z"/>
	<path class="st1" d="M178.0114136,414.0968018L1.6578979,590.4503174c-0.2758789,2.5480957-0.3865967,5.1113281-0.331543,7.6737061
		l170.3850098-170.7166748C173.7008667,423.0968018,175.6903687,418.4073486,178.0114136,414.0968018z"/>
	<path class="st1" d="M427.0757446,172.0430298L597.4608765,1.6579003c-2.65271,0-5.0211182,0.331543-7.6737061,0.331543
		L413.3862915,178.3903198C418.0757446,176.0219116,422.7178345,174.0324097,427.0757446,172.0430298z"/>
	<path class="st1" d="M450.4285278,162.0481567L611.8135376,0.6631494c-2.3210449,0-5.0209961,0.331543-7.3421631,0.331543
		L438.3969116,167.0218506C442.4232788,165.3640137,446.4021606,163.7060547,450.4285278,162.0481567z"/>
	<path class="st1" d="M166.6903076,438.7758789L0.663147,604.4714355c0,2.3210449-0.331543,5.0209961-0.331543,7.342041
		l161.3850098-161.0533447C163.3745117,446.449585,165.0324097,442.4232178,166.6903076,438.7758789z"/>
	<path class="st1" d="M471.4129028,154.3744507L625.4557495,0.3315454c-2.4520264-0.0477905-4.9044189,0.0629883-7.3421631,0.331604
		L460.4234009,158.3533936C464.0707397,157.0270996,467.7654419,155.7007446,471.4129028,154.3744507z"/>
	<path class="st1" d="M158.0218506,460.7548828L0.331604,618.4451904c0.0477905,2.4519043-0.0629883,4.9044189-0.331604,7.342041
		L153.9954834,471.791748C155.3692017,468.0970459,156.6954956,464.449707,158.0218506,460.7548828z"/>
	<path class="st1" d="M151.0112915,481.1234131L0,632.1346436v7.0106201l148.0269775-148.0270996
		C148.7086182,487.7009277,149.7077026,484.3548584,151.0112915,481.1234131z"/>
	<path class="st1" d="M491.0708618,148.0270386L639.0978394,0.0000635h-7.010498L481.0761108,151.0112305
		C484.0603638,150.0165405,487.4235229,149.0217896,491.0708618,148.0270386z"/>
	<path class="st1" d="M509.4025269,143.0533447L651.7453003,0.7105127h-7.010498L499.6919556,145.4217529
		C503.102478,144.7112427,506.4182739,143.7164917,509.4025269,143.0533447z"/>
	<path class="st1" d="M145.3270264,500.1182861L0.000061,645.4926758v7.010498l142.3427734-142.3427734
		C143.3375854,506.4655762,144.3322754,503.434082,145.3270264,500.1182861z"/>
	<path class="st1" d="M140.6849365,518.1184082L0.331604,658.4716797c-0.0634155,2.2315674,0.0474243,4.4645996,0.331543,6.6789551
		l137.7006836-137.7006836C138.9417114,524.2939453,139.7169189,521.1773682,140.6849365,518.1184082z"/>
	<path class="st1" d="M527.0709839,138.6953735L665.1033325,0.6631494c-2.321167,0-4.6895752-0.331604-6.6789551-0.331604
		L518.0709839,140.6848755C520.7710571,140.0217285,524.086853,139.3585815,527.0709839,138.6953735z"/>
	<path class="st1" d="M543.744812,135.3795776L677.7507935,1.3736596c-2.3210449,0-4.3579102-0.331543-6.6789551-0.331543
		L535.0289917,137.0848999C537.897644,136.3433838,540.8081665,135.7739258,543.744812,135.3795776z"/>
	<path class="st1" d="M136.6585693,535.4553223L0.663147,671.1665039c0,2.3210449,0.331604,4.3579102,0.331604,6.6789551
		l134.0059204-133.6743164C135.6638184,541.1395264,135.9954224,538.1079102,136.6585693,535.4553223z"/>
	<path class="st1" d="M133.6743774,551.7974854L1.6578979,683.8138428c0,2.321167,0.331604,4.3579102,0.331604,6.6789551
		l130.3585205-130.3585205C132.6243896,557.331543,133.0672607,554.5476074,133.6743774,551.7974854z"/>
	<path class="st1" d="M559.7554321,132.6795654L690.1139526,2.3209863c-2.2150879-0.2757568-4.4475098-0.3865967-6.6789551-0.331604
		L551.4185181,134.0532837C554.1692505,133.4381104,556.9526978,132.9794922,559.7554321,132.6795654z"/>
	<path class="st1" d="M131.3532715,567.4764404L2.6526489,696.1297607c0.331604,1.9893799,0.331604,4.3579102,0.663147,6.3474121
		l126.7111816-127.0427246C130.3585205,572.7817383,131.0217285,570.1291504,131.3532715,567.4764404z"/>
	<path class="st1" d="M575.4343872,130.3585205L702.4771118,3.3157983c-1.989502-0.331604-4.3579102-0.331604-6.3474121-0.663147
		L567.4290161,131.3532715C569.7501831,131.0216675,572.4502563,130.6901245,575.4343872,130.3585205z"/>
	<path class="st1" d="M590.1187134,129.0322266L714.1298218,5.0210595c-1.9893799-0.331604-4.3579102-0.331604-6.3474121-0.663147
		L582.1134644,130.0269165C584.734436,129.3869629,587.4208374,129.0531616,590.1187134,129.0322266z"/>
	<path class="st1" d="M129.3638306,582.7766113L3.6473999,708.161377c0.331543,1.989502,0.331543,4.3579102,0.663147,6.3474121
		l124.0111694-124.0584717C128.7006226,587.7976074,129.0322266,585.1450195,129.3638306,582.7766113z"/>
	<path class="st1" d="M127.9901123,597.4608154L4.9736938,720.1456299c0.331604,1.989502,0.663208,3.9790039,0.994751,6.3474121
		l121.3585205-121.3585205C127.6585083,602.4819336,127.6585083,599.7818604,127.9901123,597.4608154z"/>
	<path class="st1" d="M604.7556763,127.7058716L726.1141968,6.3473535c-1.989502-0.331543-3.9790039-0.663147-6.3474121-0.9946899
		L597.0819702,128.0374756C599.6443481,128.0935669,602.2077026,127.9827881,604.7556763,127.7058716z"/>
	<path class="st1" d="M126.9953613,611.8134766L6.6315918,731.8457031c0.331604,1.989502,0.663208,3.9790039,0.994751,6.0157471
		l119.0374146-119.0373535C126.6637573,616.4556885,126.9953613,614.1346436,126.9953613,611.8134766z"/>
	<path class="st1" d="M618.7766724,127.0427246L737.8141479,8.0053129
		c-1.9893799-0.3316045-3.9788818-0.6632085-6.0157471-0.9947515L611.4346313,127.3743286
		C613.7556763,127.3742676,616.1240845,127.0427246,618.7766724,127.0427246z"/>
	<path class="st1" d="M632.4662476,126.7111206L749.1353149,10.0421171c-1.989502-0.331543-3.9790039-0.663147-6.0157471-0.9946899
		L625.1240845,126.7111206H632.4662476z"/>
	<path class="st1" d="M126.3322144,625.4556885L8.668457,743.4984131c0.331604,1.9893799,0.663147,3.9790039,0.994751,6.0157471
		l116.6690063-116.6689453V625.4556885z"/>
	<path class="st1" d="M126.3322144,639.1452637L10.657959,754.819458c0.331543,1.989502,0.663147,3.9790039,0.994751,6.0158691
		l114.6795044-114.6795654V639.1452637z"/>
	<path class="st1" d="M645.7769165,126.7111206L760.4563599,12.0316191c-1.989502-0.331604-3.9790039-0.663147-6.0157471-0.994751
		L638.7662964,126.7111206H645.7769165z"/>
	<path class="st1" d="M658.8032837,127.0427246L771.8248901,14.021121c-1.989502-0.331604-3.9790039-0.994751-5.6843262-1.326355
		L651.7926636,126.7111206C654.1187134,126.9880371,656.4614868,127.098877,658.8032837,127.0427246z"/>
	<path class="st1" d="M126.6637573,652.1242676L12.6474609,766.1879883c0.331543,1.989502,0.9946899,3.9790039,1.3262939,5.6842041
		l112.6900024-113.0216064V652.1242676z"/>
	<path class="st1" d="M671.4507446,127.7058716L782.4828491,16.673769c-1.989502-0.331604-3.9790039-0.99475-5.6842041-1.326354
		L664.7717896,127.3743286C666.8085327,127.3742676,669.1295776,127.7058716,671.4507446,127.7058716z"/>
	<path class="st1" d="M126.9953613,665.1506348L14.9685059,776.8460693c0.2521973,1.934082,0.6964722,3.8382568,1.3262939,5.6842041
		l111.0321655-111.0321045C127.3269653,669.4611816,126.9953613,667.1401367,126.9953613,665.1506348z"/>
	<path class="st1" d="M683.8139038,128.7006226L793.1881714,19.3264179c-1.989502-0.331604-3.6473389-0.994751-5.6842041-1.326355
		L677.1349487,128.3690796C679.4559937,128.3690186,681.4454956,128.7006226,683.8139038,128.7006226z"/>
	<path class="st1" d="M127.6585083,677.4664307L17.6211548,787.8354492c0.331543,1.989502,0.994751,3.6473389,1.3262939,5.6842041
		l109.3742676-109.3742676C128.2628174,681.9058838,128.0411377,679.6737061,127.6585083,677.4664307z"/>
	<path class="st1" d="M129.0322266,689.8297119L20.321167,798.5407715c0.4053345,1.9346924,0.9596558,3.835083,1.6578979,5.6843262
		l108.0005493-108.0006104C129.3707886,694.1467285,129.052002,691.994751,129.0322266,689.8297119z"/>
	<path class="st1" d="M695.7981567,130.0269165L803.7987671,22.0264301
		c-1.9345703-0.4053345-3.8349609-0.9596558-5.6842041-1.6578979L689.4035034,129.0795898
		C691.4402466,129.3637695,693.8086548,129.6953735,695.7981567,130.0269165z"/>
	<path class="st1" d="M130.3585205,701.8139648L23.0211792,809.1513672c0.663147,1.9893799,0.994751,3.6473389,1.6578979,5.6842041
		L131.3532715,708.161377C130.8853149,706.0692139,130.5530396,703.9489746,130.3585205,701.8139648z"/>
	<path class="st1" d="M707.7824097,131.3532715L814.456604,24.6790791c-1.9893799-0.663208-3.6473389-0.994751-5.6842041-1.65802
		L701.4349976,130.3584595C703.4718628,130.6901245,705.4613647,131.0216675,707.7824097,131.3532715z"/>
	<path class="st1" d="M132.0164795,713.4666748L26.0053711,819.4777832c0.663208,1.6578369,0.994751,3.6473389,1.65802,5.3526611
		l105.3478394-105.3479004C132.6796265,717.493042,132.3480225,715.50354,132.0164795,713.4666748z"/>
	<path class="st1" d="M719.4824829,133.0111694L824.8303833,27.663271c-1.6578369-0.663147-3.6473389-0.994751-5.3526611-1.6578979
		L713.4667358,132.0163574C715.1245728,132.3480225,717.1140747,132.6795654,719.4824829,133.0111694z"/>
	<path class="st1" d="M133.6743774,725.166748L28.989624,829.8514404c0.663147,1.657959,0.994751,3.6473389,1.6578979,5.3526611
		l104.0216064-104.0689697C134.3374634,729.145752,134.0059204,727.15625,133.6743774,725.166748z"/>
	<path class="st1" d="M730.8036499,135.0480347L834.8252563,31.0264301
		c-1.7318115-0.7095337-3.5230713-1.2643433-5.3527832-1.6578979L724.7877808,134.0532837
		C726.7772827,134.3848877,728.8141479,134.7164307,730.8036499,135.0480347z"/>
	<path class="st1" d="M135.6638184,736.15625L32.3054199,839.5146484c0.7095337,1.7318115,1.2643433,3.5229492,1.6578979,5.3526611
		l103.0268555-102.6953125C136.6585693,740.1826172,135.9954224,738.145752,135.6638184,736.15625z"/>
	<path class="st1" d="M741.7931519,137.3690796L844.4884644,34.6738319
		c-1.7318115-0.7095337-3.5230713-1.2642822-5.3526611-1.6578979L735.7774048,136.3743286
		C737.8233032,136.3771362,739.8551636,136.7131348,741.7931519,137.3690796z"/>
	<path class="st1" d="M752.7826538,139.6901245L854.4830933,37.9896278
		c-1.6578369-0.663147-3.3157959-1.3262939-5.3526611-1.9894409L746.7667847,138.3638306
		C748.8036499,138.6953735,750.7931519,139.3585815,752.7826538,139.6901245z"/>
	<path class="st1" d="M138.0322876,747.145752L35.6685791,849.5095215c0.663147,1.6578369,1.326355,3.3157959,1.989502,5.3526611
		l101.7005005-101.7005615C139.0269775,751.1721191,138.3638306,749.1826172,138.0322876,747.145752z"/>
	<path class="st1" d="M763.4879761,142.3901367L864.1936646,41.684391c-1.6578369-0.663147-3.3157959-1.3262939-5.0209961-1.9894409
		L757.803772,141.0638428C759.7467651,141.2651367,761.6565552,141.7107544,763.4879761,142.3901367z"/>
	<path class="st1" d="M140.6849365,758.1826172L39.315918,859.5516357c0.663147,1.6578369,1.326355,3.3157959,1.989502,5.0209961
		l100.7057495-100.7530518C141.4127197,761.980835,140.9691162,760.0953369,140.6849365,758.1826172z"/>
	<path class="st1" d="M774.1459351,145.0427856l99.6636963-99.7109985c-1.657959-0.663147-3.3157959-1.3262939-5.0211182-1.989502
		L768.4143677,143.7164917C770.4985962,144.0480957,772.1564331,144.7112427,774.1459351,145.0427856z"/>
	<path class="st1" d="M143.3375854,768.8405762L42.9633789,869.2148438c0.663147,1.6578369,1.3262939,3.3157959,1.989502,5.0209961
		l99.6636353-99.7109375C144.3322754,772.4880371,143.6690674,770.8300781,143.3375854,768.8405762z"/>
	<path class="st1" d="M146.0375977,779.1669922l-99.3320923,99.3320312c0.663147,1.657959,1.326355,3.3157959,1.989502,5.0211182
		l99.0004883-99.0004883C147.0322876,782.8143311,146.7007446,781.1564941,146.0375977,779.1669922z"/>
	<path class="st1" d="M784.4723511,148.0270386l99.0004883-99.0004883c-1.657959-0.663147-3.3157959-1.326355-5.0211182-1.989502
		l-99.3320312,99.3320923C780.8248901,147.0322876,782.4828491,147.3638916,784.4723511,148.0270386z"/>
	<path class="st1" d="M149.0217896,789.4932861l-98.3373413,98.3374023c0.663147,1.6578369,1.326355,3.3157959,1.989502,5.0209961
		l98.0057373-98.0056152C150.2322388,793.0308838,149.6786499,791.2435303,149.0217896,789.4932861z"/>
	<path class="st1" d="M794.4671021,151.0585938l98.0057373-98.0057373c-1.6578369-0.663147-3.3157959-1.3262939-5.0211182-1.9894409
		l-98.3372803,98.3373413C791.1513062,150.0165405,792.8091431,150.7270508,794.4671021,151.0585938z"/>
	<path class="st1" d="M152.3375854,799.4881592l-97.6741333,97.6741943
		c0.6448975,1.7302246,1.4207764,3.4088135,2.3209839,5.0209961l97.3425903-97.3425293
		C153.6639404,803.1828613,153.0007324,801.5250244,152.3375854,799.4881592z"/>
	<path class="st1" d="M804.461853,154.3744507l97.3426514-97.0109863c-1.7303467-0.6448364-3.4088135-1.4207764-5.0211182-2.3209839
		l-97.6268311,97.6741943C800.8909302,153.3729248,802.6624146,153.9264526,804.461853,154.3744507z"/>
	<path class="st1" d="M814.5040894,158.0217896l96.3477783-96.3478394c-1.6578369-0.663147-3.3157959-1.6578979-4.6894531-2.3209839
		l-97.0109863,97.0109863C810.9898071,156.7234497,812.7843628,157.2792358,814.5040894,158.0217896z"/>
	<path class="st1" d="M155.7008057,809.5302734l-97.0109863,97.0111084
		c0.5811157,1.6512451,1.3604736,3.2259521,2.3209839,4.6894531l96.3478394-96.3479004
		C156.9650879,813.0532227,156.4103394,811.262085,155.7008057,809.5302734z"/>
	<path class="st1" d="M159.3481445,819.1934814l-96.0162354,96.3479004c0.663147,1.657959,1.6578979,2.9842529,2.3209839,4.6894531
		l95.6846924-95.6845703C160.6744995,822.8409424,160.0113525,821.1829834,159.3481445,819.1934814z"/>
	<path class="st1" d="M824.1672974,161.7165527l95.6846924-95.6846924c-1.657959-0.663147-2.9842529-1.6578979-4.6895752-2.3209801
		l-96.3477783,96.3478394C820.6547241,160.411377,822.4500122,160.9674072,824.1672974,161.7165527z"/>
	<path class="st1" d="M162.9955444,828.8566895l-95.6846924,95.6846924c0.663147,1.657959,1.6578979,2.9842529,2.3209839,4.6895752
		l95.3531494-95.3531494C164.5163574,832.1334229,163.848877,830.4486084,162.9955444,828.8566895z"/>
	<path class="st1" d="M833.4988403,165.3640137l95.3531494-95.3530884c-1.6578369-0.663147-2.9842529-1.6578979-4.6894531-2.3209839
		l-95.6846924,95.6846924C830.1356812,164.0376587,831.8410034,164.7008057,833.4988403,165.3640137z"/>
	<path class="st1" d="M167.0219116,838.5198975l-95.0215454,95.0214844c0.663147,1.657959,1.6578979,2.9842529,2.3210449,4.6895752
		l94.6899414-94.6899414C168.4718018,841.8209229,167.8068848,840.1427002,167.0219116,838.5198975z"/>
	<path class="st1" d="M842.8305054,169.3903198l94.6898193-94.6899414c-1.6578369-0.663208-2.9842529-1.6578979-4.6894531-2.321106
		l-95.0214844,95.0215454C839.52948,167.9403687,841.2077026,168.6052856,842.8305054,169.3903198z"/>
	<path class="st1" d="M171.0008545,847.5198975l-94.3583374,94.3583984
		c0.7674561,1.6263428,1.6541138,3.1938477,2.6526489,4.6894531l94.0267334-94.0268555
		C172.7061157,850.8356934,171.6640015,849.1778564,171.0008545,847.5198975z"/>
	<path class="st1" d="M852.1621704,173.7008667l94.0267334-94.0267944c-1.657959-0.994751-2.9842529-1.6578979-4.6894531-2.6526489
		l-94.3583984,94.3583374C848.8463745,172.0430298,850.5042114,173.0376587,852.1621704,173.7008667z"/>
	<path class="st1" d="M861.1621704,178.0587769l93.6951904-93.6952515c-1.657959-0.9946899-2.9842529-1.6578979-4.6894531-2.6526489
		l-93.6951904,93.6478882C858.1779175,176.3534546,859.5043335,177.0640259,861.1621704,178.0587769z"/>
	<path class="st1" d="M175.3587646,856.8515625l-93.6951904,93.6951904c0.994751,1.657959,1.6578979,2.9842529,2.6526489,4.6894531
		l93.6951904-93.6951904C176.958374,860.0795898,176.0688477,858.506958,175.3587646,856.8515625z"/>
	<path class="st1" d="M870.1621704,182.3693237l93.0321045-93.0319824c-1.3262939-0.994751-2.9842529-1.6578979-4.3105469-2.6526489
		l-93.4110107,93.3635864C866.8463745,180.7114258,868.5043335,181.7061768,870.1621704,182.3693237z"/>
	<path class="st1" d="M179.6693115,865.8516846L86.3057251,959.21521c0.9946899,1.326416,1.6578979,2.9842529,2.6526489,4.3106689
		l93.0319824-93.0321045C181.3026733,868.9049072,180.527832,867.3551025,179.6693115,865.8516846z"/>
	<path class="st1" d="M184.3588257,874.5200195L91.3268433,967.552124c0.994751,1.3262939,1.6578979,2.9842529,2.6526489,4.3105469
		l92.7004395-92.6530762C185.7835693,877.7102051,185.0074463,876.1420898,184.3588257,874.5200195z"/>
	<path class="st1" d="M878.8306274,187.0587769l92.7004395-92.7004395c-1.3262939-0.994751-2.9842529-1.6578979-4.3105469-2.6526489
		l-93.0321045,93.0319824C875.8289185,185.309082,877.3892212,186.0891724,878.8306274,187.0587769z"/>
	<path class="st1" d="M188.6693726,883.1885986l-92.3688965,92.3688965c0.994751,1.3262939,1.6578979,2.9842529,2.6526489,4.3105469
		l92.3688965-92.3688965C190.5195923,886.0135498,189.6339722,884.5744629,188.6693726,883.1885986z"/>
	<path class="st1" d="M887.4990845,191.7009277l92.3688965-92.3688965
		c-1.3262939-0.9946899-2.9842529-1.6578979-4.3105469-2.6526489l-92.3688965,92.3688965
		C884.5787964,190.0060425,886.0176392,190.8914185,887.4990845,191.7009277z"/>
	<path class="st1" d="M193.6904297,891.8570557l-92.0372925,92.0373535c1.0029907,1.3602295,1.8903198,2.802124,2.6526489,4.3105469
		l91.7057495-91.7056885C195.3483276,894.8411865,194.3535767,893.1833496,193.6904297,891.8570557z"/>
	<path class="st1" d="M895.8359985,196.7219849l91.7056885-91.7056885c-1.3602295-1.0029907-2.802124-1.8903198-4.3105469-2.6526489
		l-92.0373535,92.0372925C892.8892212,194.8341675,894.4721069,195.6256104,895.8359985,196.7219849z"/>
	<path class="st1" d="M198.7114868,900.1939697l-91.7056885,91.7056885c1.0717163,1.381958,2.0679321,2.8209229,2.9841919,4.3105469
		l91.3741455-91.3267822C200.3693848,903.1781006,199.3746948,901.5202637,198.7114868,900.1939697z"/>
	<path class="st1" d="M904.1729126,201.3641357l91.3740234-91.3741455c-1.381958-1.0717163-2.8209229-2.0679321-4.3105469-2.9841919
		l-91.4213867,91.7056885C901.5202026,199.7062378,902.8466187,200.7009888,904.1729126,201.3641357z"/>
	<path class="st1" d="M912.5098267,206.7167969l90.9951172-91.3741455
		c-1.3820801-1.0717163-2.8210449-2.0679321-4.3106689-2.9841919l-91.3741455,91.3740845
		C909.4369507,204.640564,911.0025024,205.6367798,912.5098267,206.7167969z"/>
	<path class="st1" d="M203.6852417,908.5307617l-91.3741455,91.3741455c1.0717163,1.381958,2.0679321,2.8209229,2.9841919,4.3105469
		l90.9952393-90.9951172C205.5216675,911.6038818,204.6514893,910.0375977,203.6852417,908.5307617z"/>
	<path class="st1" d="M208.7062988,916.5361328l-90.9951782,90.9951172c0.994751,1.326416,1.9894409,2.65271,2.9841919,3.9790039
		l90.9951782-90.6636963C210.6188354,919.4645996,209.6226196,918.0256348,208.7062988,916.5361328z"/>
	<path class="st1" d="M920.5150757,212.069458l90.9952393-91.0425415c-1.3262939-0.994751-2.65271-1.989502-3.9788818-2.9842529
		l-90.9952393,91.0426025C917.8624878,210.0325928,919.1889038,211.0274048,920.5150757,212.069458z"/>
	<path class="st1" d="M214.0115967,924.5413818l-90.6635742,91.0426025c0.9946289,1.326416,1.9894409,2.6525879,2.9841919,3.9788818
		l90.6635742-90.6635742C216.0484619,927.5256348,215.0063477,926.1993408,214.0115967,924.5413818z"/>
	<path class="st1" d="M928.5203247,217.3747559l90.6636963-90.6636353c-1.326416-0.994751-2.65271-1.989502-3.9788818-2.9841919
		l-90.6636963,90.6635742C925.8203735,215.3852539,927.1941528,216.3800049,928.5203247,217.3747559z"/>
	<path class="st1" d="M936.5256958,222.727417l90.3319702-90.3320312c-1.326416-0.994812-2.6525879-1.989502-3.9789429-2.9842529
		l-90.3319092,90.3320312C933.729187,220.9165649,935.0681763,221.9208374,936.5256958,222.727417z"/>
	<path class="st1" d="M219.6958618,932.5466309l-90.3320312,90.3320312c0.9946289,1.326416,1.9894409,2.652832,2.9841919,3.9790039
		l90.3319702-90.3320312C221.6853027,935.1994629,220.6905518,933.8730469,219.6958618,932.5466309z"/>
	<path class="st1" d="M225.0484619,940.2203369l-90.0004272,90.3320312c0.994751,1.326416,1.9894409,2.65271,2.9842529,3.9788818
		l90.0004272-90.0003662C227.116333,943.0412598,226.1201782,941.602417,225.0484619,940.2203369z"/>
	<path class="st1" d="M944.1994019,228.3642578l90.0005493-90.0004272c-1.326416-0.994751-2.652832-1.989502-3.9790039-2.9842529
		l-90.3319702,90.0004883C941.1679077,226.3748169,942.8257446,227.3695068,944.1994019,228.3642578z"/>
	<path class="st1" d="M951.4942017,234.3800659l90.0004272-90.0004272c-1.3261719-0.994751-2.6525879-1.9894409-3.9787598-2.9841919
		l-90.0005493,90.0004272C948.9191284,232.2828369,950.2496948,233.2807617,951.4942017,234.3800659z"/>
	<path class="st1" d="M231.0169067,947.8468018l-90.0004272,90.0003662c0.994751,1.326416,1.9894409,2.65271,2.9841919,3.9790039
		l90.0004883-90.0004883C233.053772,950.5467529,232.0116577,949.220459,231.0169067,947.8468018z"/>
	<path class="st1" d="M236.7011719,955.5205078l-90.0004272,90.0003662
		c0.9263306,1.3671875,2.0427856,2.5953369,3.3157959,3.6474609l89.6688232-89.6689453
		C238.6906738,958.2205811,237.6959229,956.8942871,236.7011719,955.5205078z"/>
	<path class="st1" d="M959.1679077,240.0643311l89.6690063-89.6688843
		c-1.2895508-1.0213013-2.5083008-2.1291504-3.6474609-3.3157959l-90.0004272,90.0004272
		C956.5151978,238.0748291,957.8414917,239.069519,959.1679077,240.0643311z"/>
	<path class="st1" d="M966.1785278,246.0802002l89.6688843-89.6688843
		c-1.2895508-1.0213623-2.5080566-2.1292114-3.6474609-3.3158569l-89.6687622,89.6688843
		C963.8573608,244.0432739,965.1837769,245.0380859,966.1785278,246.0802002z"/>
	<path class="st1" d="M242.71698,962.8626709l-89.6688232,89.6688232c0.9262695,1.3671875,2.0427856,2.5953369,3.3157959,3.6473389
		l89.6688232-89.62146C244.7588501,965.4882812,243.6425171,964.2443848,242.71698,962.8626709z"/>
	<path class="st1" d="M248.6854858,970.2047119l-89.6688843,89.6689453
		c1.0213013,1.2895508,2.1291504,2.5080566,3.3157959,3.6473389l89.7162476-89.6688232
		C251.0115356,972.5615234,249.8878784,971.3428955,248.6854858,970.2047119z"/>
	<path class="st1" d="M973.5206909,252.380127l89.6687622-89.6688232c-1.326416-0.994751-2.3210449-2.3209839-3.6474609-3.3157959
		L969.87323,249.0643311C970.867981,250.059082,972.1942749,251.053833,973.5206909,252.380127z"/>
	<path class="st1" d="M980.531189,258.7275391l89.6687622-89.6688232c-1.3261719-0.994751-2.3210449-2.3210449-3.6472168-3.3157959
		l-89.6690063,89.6688232C978.2410278,256.350708,979.4675903,257.4656982,980.531189,258.7275391z"/>
	<path class="st1" d="M255.0328979,977.215332l-89.6689453,89.6689453c0.994751,1.3262939,2.321106,2.3209229,3.3158569,3.6473389
		l89.6688843-89.6689453C257.1539917,979.7312012,256.0457153,978.512085,255.0328979,977.215332z"/>
	<path class="st1" d="M987.541687,265.0749512l89.6690063-89.7161865c-1.326416-0.994751-2.3210449-2.3209839-3.6474609-3.3157959
		l-89.3373413,89.3372803C985.2103882,262.7150879,986.3207397,263.9523926,987.541687,265.0749512z"/>
	<path class="st1" d="M261.3803101,984.2259521l-89.6689453,89.3372803c0.994751,1.326416,2.321106,2.3210449,3.3158569,3.6473389
		l89.3372192-89.3372803C263.701355,986.5469971,262.374939,985.5522461,261.3803101,984.2259521z"/>
	<path class="st1" d="M994.5049438,271.375l89.3373413-89.3372803c-1.326416-0.994751-2.3210449-2.3210449-3.6474609-3.3157959
		l-89.3373413,89.3372803C991.9967651,269.2458496,993.2153931,270.3536377,994.5049438,271.375z"/>
	<path class="st1" d="M267.7276001,991.1890869l-89.3372803,89.3374023c0.994751,1.3262939,2.321106,2.3209229,3.3158569,3.6473389
		l89.3372192-89.3374023C270.0487671,993.5574951,268.7223511,992.2312012,267.7276001,991.1890869z"/>
</g>
<path class="st2" d="M637.7952271,126.3074951c-282.5301514,0-511.6535034,229.1234131-511.6535034,511.6535645
	S355.312439,1149.614624,637.7952271,1149.614624s511.6535034-229.1234131,511.6535034-511.6535645
	S920.3255005,126.3074951,637.7952271,126.3074951z"/>
<path class="st3" d="M637.7952271,248.1419678c-215.2752686,0-389.8189697,174.5438232-389.8189697,389.8190918
	s174.5437012,389.8189697,389.8189697,389.8189697s389.8190308-174.5437012,389.8190308-389.8189697
	S853.0706177,248.1419678,637.7952271,248.1419678z"/>
<circle class="st1" cx="637.7953491" cy="637.9610596" r="270.6052246"/>
</svg>
